<svg height="464pt" viewBox="0 0 464 464" width="464pt" xmlns="http://www.w3.org/2000/svg"><path d="m256 136c0 13.253906-10.746094 24-24 24s-24-10.746094-24-24 10.746094-24 24-24 24 10.746094 24 24zm0 0"/><path d="m284.289062 116.105469c-.394531-1.035157-.800781-2.035157-1.234374-3.027344l-1.550782-3.460937 8.648438-17.296876-14.472656-14.472656-17.296876 8.648438-3.460937-1.550782c-.992187-.441406-1.992187-.839843-3.027344-1.234374l-3.542969-1.34375-6.121093-18.367188h-20.46875l-6.121094 18.367188-3.542969 1.34375c-1.035156.394531-2.035156.800781-3.027344 1.234374l-3.460937 1.550782-17.296875-8.648438-14.472656 14.472656 8.648437 17.296876-1.550781 3.460937c-.441406.992187-.839844 1.992187-1.234375 3.027344l-1.34375 3.542969-18.359375 6.121093v20.46875l18.367188 6.121094 1.34375 3.542969c.394531 1.035156.800781 2.035156 1.234374 3.027344l1.550782 3.460937-8.648438 17.296875 14.472656 14.472656 17.296876-8.648437 3.460937 1.550781c.992187.441406 1.992187.839844 3.027344 1.234375l3.542969 1.34375 6.121093 18.367187h20.46875l6.121094-18.367187 3.542969-1.34375c1.035156-.394531 2.035156-.800781 3.027344-1.234375l3.460937-1.550781 17.296875 8.648437 14.472656-14.472656-8.648437-17.296875 1.550781-3.460937c.441406-.992188.839844-1.992188 1.234375-3.027344l1.34375-3.542969 18.359375-6.121094v-20.46875l-18.367188-6.121093zm-52.289062 59.894531c-22.054688 0-40-17.945312-40-40s17.945312-40 40-40 40 17.945312 40 40-17.945312 40-40 40zm0 0"/><path d="m336 32h-24v-32h-16v32h-32v-32h-16v32h-32v-32h-16v32h-32v-32h-16v35.3125l-24 24v180.6875h208zm-16 125.769531-19.648438 6.542969 9.265626 18.519531-30.785157 30.785157-18.519531-9.265626-6.542969 19.648438h-43.53125l-6.542969-19.648438-18.519531 9.265626-30.785156-30.785157 9.265625-18.519531-19.65625-6.542969v-43.53125l19.648438-6.542969-9.265626-18.519531 30.785157-30.785156 18.519531 9.265625 6.542969-19.648438h43.53125l6.542969 19.648438 18.519531-9.265625 30.785156 30.785156-9.265625 18.519531 19.65625 6.542969zm0 0"/><path d="m448 120v296h-432v-296h-16v312h208v8c0 13.230469 10.769531 24 24 24s24-10.769531 24-24v-8h208v-312zm0 0"/><path d="m224 304h16v96h192v-328h-80v32h32v16h-32v32h32v16h-32v32h32v16h-32v40h-40v32h-16v-32h-32v32h-16v-32h-32v32h-16v-32h-32v32h-16v-32h-40v-40h-32v-16h32v-32h-32v-16h32v-32h-32v-16h32v-32h-80v328h192zm32 0h160v16h-160zm0 32h160v16h-160zm0 32h160v16h-160zm-48 16h-160v-16h160zm0-32h-160v-16h160zm0-32h-160v-16h160zm0 0"/></svg>