<svg height="448pt" viewBox="0 -56 448 448" width="448pt" xmlns="http://www.w3.org/2000/svg"><path d="m40 24h368v224h-368zm0 0"/><path d="m448 288h-448v8c.0273438 22.082031 17.917969 39.972656 40 40h368c22.082031-.027344 39.972656-17.917969 40-40zm-200 24h-48c-4.417969 0-8-3.582031-8-8s3.582031-8 8-8h48c4.417969 0 8 3.582031 8 8s-3.582031 8-8 8zm0 0"/><path d="m16 272h416v-264c0-4.417969-3.582031-8-8-8h-400c-4.417969 0-8 3.582031-8 8zm8-256c0-4.417969 3.582031-8 8-8h384c4.417969 0 8 3.582031 8 8v240c0 4.417969-3.582031 8-8 8h-384c-4.417969 0-8-3.582031-8-8zm0 0"/></svg>