<?xml version="1.0" encoding="iso-8859-1"?>
<!-- Generator: Adobe Illustrator 18.1.1, SVG Export Plug-In . SVG Version: 6.00 Build 0)  -->
<svg version="1.1" id="Capa_1" xmlns="http://www.w3.org/2000/svg" xmlns:xlink="http://www.w3.org/1999/xlink" x="0px" y="0px"
	 viewBox="0 0 525.153 525.153" style="enable-background:new 0 0 525.153 525.153;" xml:space="preserve">
<g>
	<path d="M472.375,52.471C472.375,23.632,449.027,0,420.1,0H210.105L52.471,157.524v315.135c0,28.862,23.719,52.493,52.581,52.493
		h315.354c28.84,0,52.275-23.632,52.275-52.471L472.375,52.471z M183.76,446.336h-52.471v-52.471h52.471V446.336z M393.864,446.336
		h-52.471v-52.471h52.471V446.336z M183.76,341.393h-52.471V236.341h52.471V341.393z M288.812,446.336h-52.471V341.371h52.471
		V446.336z M288.812,288.812h-52.471v-52.471h52.471V288.812z M393.864,341.393h-52.471V236.341h52.471V341.393z"/>
</g>
<g>
</g>
<g>
</g>
<g>
</g>
<g>
</g>
<g>
</g>
<g>
</g>
<g>
</g>
<g>
</g>
<g>
</g>
<g>
</g>
<g>
</g>
<g>
</g>
<g>
</g>
<g>
</g>
<g>
</g>
</svg>
