<?xml version="1.0" encoding="UTF-8"?>
<svg width="30px" height="24px" viewBox="0 0 30 24" version="1.1" xmlns="http://www.w3.org/2000/svg" xmlns:xlink="http://www.w3.org/1999/xlink">
    <!-- Generator: Sketch 49.3 (51167) - http://www.bohemiancoding.com/sketch -->
    <title>twitter</title>
    <desc>Created with Sketch.</desc>
    <defs></defs>
    <g id="twitter" stroke="none" stroke-width="1" fill="none" fill-rule="evenodd" opacity="0.4">
        <g id="Page-1" fill="#212121">
            <path d="M30.0001,2.9761 C28.8351,3.4561 27.7671,3.8401 26.5051,3.9361 C27.7671,3.1681 28.7371,1.9201 29.2241,0.5761 C27.9611,1.3441 26.6991,1.8241 25.3401,2.0161 C24.0771,0.7681 22.4271,0.0001 20.6801,0.0001 C17.2811,0.0001 14.5621,2.6881 14.5621,5.9521 C14.5621,6.4321 14.5621,6.9121 14.6601,7.2961 C9.6111,7.2001 5.2421,4.9921 2.2321,1.3441 C1.5541,2.2081 1.3591,3.2641 1.3591,4.4161 C1.3591,6.5281 2.5241,8.3521 4.0771,9.5041 C3.1061,9.3121 2.0391,9.0241 1.3591,8.6401 L1.3591,8.7361 C1.3591,11.7121 3.4951,14.1121 6.2141,14.6881 C5.7281,14.7841 5.2421,14.9761 4.5631,14.9761 C4.1751,14.9761 3.7861,14.9761 3.3971,14.8801 C4.1751,17.3761 6.4071,19.1031 9.1261,19.1031 C6.9901,20.7361 4.3691,21.6961 1.5541,21.6961 C1.0671,21.6961 0.5821,21.6961 0.0001,21.6001 C2.8151,23.0401 6.1161,24.0001 9.4171,24.0001 C20.7761,24.0001 26.8941,14.8801 26.8941,6.9121 L26.8941,6.1441 C28.1551,5.3761 29.1261,4.2241 30.0001,2.9761" id="Fill-1"></path>
        </g>
    </g>
</svg>